/* XPM */
static char * blogbridge32_xpm[] = {
"32 32 473 2",
"  	c None",
". 	c #858383",
"+ 	c #F0EFEE",
"@ 	c #707070",
"# 	c #757575",
"$ 	c #F9F9F9",
"% 	c #F5F9FE",
"& 	c #FAF8F7",
"* 	c #6C6C6B",
"= 	c #6A6763",
"- 	c #F1F0ED",
"; 	c #BED5EF",
"> 	c #97BCE4",
", 	c #E9F2FA",
"' 	c #696969",
") 	c #B1AEAE",
"! 	c #BCBAB4",
"~ 	c #C5C1BB",
"{ 	c #C3C2BF",
"] 	c #BFC1C2",
"^ 	c #B9C0C5",
"/ 	c #ADB9C5",
"( 	c #B4C4D7",
"_ 	c #B1CAE7",
": 	c #98CEF2",
"< 	c #A1E1FD",
"[ 	c #A2D1F0",
"} 	c #EAF2FA",
"| 	c #F8F7F6",
"1 	c #636363",
"2 	c #868685",
"3 	c #E7F0FA",
"4 	c #A3BFE2",
"5 	c #9BBBE3",
"6 	c #7CA4D9",
"7 	c #588BCC",
"8 	c #3772BE",
"9 	c #2F6CBA",
"0 	c #2461B5",
"a 	c #4780C9",
"b 	c #A6E6FF",
"c 	c #ADE8FF",
"d 	c #A8E2FE",
"e 	c #AAD2EF",
"f 	c #F7FAFE",
"g 	c #EEEDEC",
"h 	c #424242",
"i 	c #B0AFAE",
"j 	c #CADFF9",
"k 	c #84AFF3",
"l 	c #5E94ED",
"m 	c #588EE6",
"n 	c #5288DF",
"o 	c #4C81D8",
"p 	c #4078CF",
"q 	c #336BC3",
"r 	c #2360B9",
"s 	c #5DA9DF",
"t 	c #ACE7FF",
"u 	c #B5EBFF",
"v 	c #ADE3FD",
"w 	c #B1D4EF",
"x 	c #F5F8FE",
"y 	c #DEDDDB",
"z 	c #C5C7C9",
"A 	c #BDD7F8",
"B 	c #C1D9FF",
"C 	c #92B7F8",
"D 	c #5D91E7",
"E 	c #5387DC",
"F 	c #467AD1",
"G 	c #396EC7",
"H 	c #2D67BF",
"I 	c #205BB3",
"J 	c #114EA9",
"K 	c #417ABF",
"L 	c #9FCCEF",
"M 	c #BAEAFF",
"N 	c #B3E3FC",
"O 	c #B2D3EF",
"P 	c #F6FAFF",
"Q 	c #A9A5A1",
"R 	c #A9A39D",
"S 	c #E4E5E6",
"T 	c #B2CEF5",
"U 	c #BDD7FF",
"V 	c #B7D1FB",
"W 	c #81A9EB",
"X 	c #487ED7",
"Y 	c #3D86D7",
"Z 	c #3480CF",
"` 	c #2760BA",
" .	c #1B57B0",
"..	c #0D48A4",
"+.	c #003B9A",
"@.	c #3366B2",
"#.	c #A6D0F2",
"$.	c #C3EDFF",
"%.	c #BBE4FD",
"&.	c #B6D6F0",
"*.	c #F5FAFF",
"=.	c #DCDBDA",
"-.	c #D1D1D1",
";.	c #F8F9F8",
">.	c #BDCEE0",
",.	c #ADC2DC",
"'.	c #A5BEDC",
").	c #A0BBDD",
"!.	c #9EBCE1",
"~.	c #94B6E1",
"{.	c #B4D0F9",
"].	c #BAD3FE",
"^.	c #B2CEF9",
"/.	c #AECAF5",
"(.	c #719DE1",
"_.	c #34A7E9",
":.	c #3CB8EE",
"<.	c #276EC0",
"[.	c #124BA8",
"}.	c #226AB8",
"|.	c #256DB8",
"1.	c #0B4CA2",
"2.	c #6CA7D8",
"3.	c #C4ECFE",
"4.	c #C8EAFF",
"5.	c #C2E6FE",
"6.	c #B9D6F0",
"7.	c #F3F8FE",
"8.	c #D9D8D7",
"9.	c #4F4F4F",
"0.	c #F4F2F0",
"a.	c #79A2D1",
"b.	c #4481DB",
"c.	c #6CA1F5",
"d.	c #6DA1F8",
"e.	c #699FF7",
"f.	c #6BA0F9",
"g.	c #9FC1FE",
"h.	c #BAD2FB",
"i.	c #AECAF6",
"j.	c #A9C5F3",
"k.	c #A3BFEE",
"l.	c #5AB9EE",
"m.	c #3DBBF0",
"n.	c #2978C5",
"o.	c #0A42A2",
"p.	c #3281C5",
"q.	c #63BDE8",
"r.	c #5FAEDD",
"s.	c #65AFDC",
"t.	c #99CCEC",
"u.	c #CBEBFF",
"v.	c #CDEBFF",
"w.	c #C7E5FD",
"x.	c #B7D2ED",
"y.	c #FDFFFF",
"z.	c #C0BFBE",
"A.	c #5E5C5C",
"B.	c #E6E7E8",
"C.	c #7CA5DB",
"D.	c #659BF3",
"E.	c #80AFFF",
"F.	c #7CACFF",
"G.	c #7BABFF",
"H.	c #71A3F9",
"I.	c #94B9F6",
"J.	c #B0C9F4",
"K.	c #A5C1F0",
"L.	c #A0BBEB",
"M.	c #99C9F1",
"N.	c #63CAF5",
"O.	c #1F6FC0",
"P.	c #033C9E",
"Q.	c #236AB7",
"R.	c #64B8E5",
"S.	c #6AB6E2",
"T.	c #6DB2DE",
"U.	c #73B0DB",
"V.	c #A5CFED",
"W.	c #D1ECFF",
"X.	c #D5ECFF",
"Y.	c #C9E3FB",
"Z.	c #BFD7F0",
"`.	c #FAFDFF",
" +	c #AEADAC",
".+	c #5E5C59",
"++	c #E4E5E4",
"@+	c #79A2D8",
"#+	c #649AF2",
"$+	c #80AEFF",
"%+	c #78A7FC",
"&+	c #669DF4",
"*+	c #36B5FC",
"=+	c #73C8FC",
"-+	c #A3C5F5",
";+	c #9BC0F1",
">+	c #A1D3FA",
",+	c #A9ECFF",
"'+	c #519EDD",
")+	c #1660B5",
"!+	c #3F8CCE",
"~+	c #68B9E5",
"{+	c #6DB5E1",
"]+	c #73B3DE",
"^+	c #77B1DB",
"/+	c #7CB0D7",
"(+	c #ADD0EC",
"_+	c #D7ECFF",
":+	c #D7EDFF",
"<+	c #C8E4FC",
"[+	c #BFD7EF",
"}+	c #FFFFFF",
"|+	c #9D9D9D",
"1+	c #5C5B59",
"2+	c #E1E2E1",
"3+	c #78A2D8",
"4+	c #639AF1",
"5+	c #71A4FE",
"6+	c #5D95EF",
"7+	c #39B2F0",
"8+	c #50BCE5",
"9+	c #92BCD3",
"0+	c #A1BCCD",
"a+	c #9FBECC",
"b+	c #A2BFCB",
"c+	c #9CBFD1",
"d+	c #6DB0D3",
"e+	c #60B3E0",
"f+	c #6AB9E8",
"g+	c #71B7E4",
"h+	c #79B5DF",
"i+	c #80B4DC",
"j+	c #85B4DA",
"k+	c #8AB2D7",
"l+	c #B5D3ED",
"m+	c #D9EFFF",
"n+	c #BCD9F5",
"o+	c #D8E5F5",
"p+	c #F1F1F0",
"q+	c #555555",
"r+	c #595856",
"s+	c #DEE0DF",
"t+	c #75A0D7",
"u+	c #6792D7",
"v+	c #98AACB",
"w+	c #A9AFB5",
"x+	c #ABACAB",
"y+	c #ACAAA8",
"z+	c #AEAAA8",
"A+	c #B2AEAC",
"B+	c #B8B4B2",
"C+	c #BCB9B7",
"D+	c #B2B1B1",
"E+	c #929EA6",
"F+	c #7297AD",
"G+	c #6FABD3",
"H+	c #73B0DF",
"I+	c #6CA4D4",
"J+	c #689BCD",
"K+	c #6696C5",
"L+	c #6290BF",
"M+	c #8FB2D7",
"N+	c #DFEAF6",
"O+	c #FAF9F7",
"P+	c #626262",
"Q+	c #6E6D6C",
"R+	c #CCCECE",
"S+	c #B8BABB",
"T+	c #B7B4AF",
"U+	c #979594",
"V+	c #8D8B8B",
"W+	c #939393",
"X+	c #A1A1A1",
"Y+	c #ACACAC",
"Z+	c #B6B6B6",
"`+	c #C1C0C0",
" @	c #D5D3D2",
".@	c #DFDCDA",
"+@	c #BEB9B5",
"@@	c #76838D",
"#@	c #507DA7",
"$@	c #648EB9",
"%@	c #7999BC",
"&@	c #93A8BF",
"*@	c #ABB5BF",
"=@	c #B6B9BE",
"-@	c #969695",
";@	c #616161",
">@	c #C7C7C5",
",@	c #9E9D9C",
"'@	c #878787",
")@	c #989898",
"!@	c #C9C9C9",
"~@	c #D2D2D2",
"{@	c #D3D4D5",
"]@	c #D1D3D6",
"^@	c #CBCED3",
"/@	c #C5C9CF",
"(@	c #CFD2D4",
"_@	c #EDEDEB",
":@	c #E1DEDC",
"<@	c #959493",
"[@	c #959290",
"}@	c #8C8883",
"|@	c #777571",
"1@	c #615F5D",
"2@	c #4E4E4D",
"3@	c #3E3D3D",
"4@	c #111111",
"5@	c #D4D4D4",
"6@	c #9B9B9B",
"7@	c #F0F0F0",
"8@	c #FBFEFF",
"9@	c #F7FFFF",
"0@	c #EBFBFF",
"a@	c #D3DCEC",
"b@	c #C7CBDB",
"c@	c #F3F5F7",
"d@	c #EAE9E7",
"e@	c #5F5E5E",
"f@	c #919191",
"g@	c #C4C4C4",
"h@	c #A5A5A5",
"i@	c #F5F5F5",
"j@	c #FEFEFE",
"k@	c #F7FCFE",
"l@	c #ECF4F9",
"m@	c #DDE0E7",
"n@	c #ECE4EB",
"o@	c #F1CCD3",
"p@	c #F3AFB5",
"q@	c #EFB0B8",
"r@	c #D7D4EB",
"s@	c #BBD3F5",
"t@	c #F2F5F8",
"u@	c #AAAAA9",
"v@	c #B3B3B3",
"w@	c #EDEDED",
"x@	c #FEFFFF",
"y@	c #F6FFFF",
"z@	c #E5DCE0",
"A@	c #EDA2A6",
"B@	c #F57778",
"C@	c #FD5F5E",
"D@	c #EF5B5C",
"E@	c #DE95A1",
"F@	c #D3D3E9",
"G@	c #D0E4FF",
"H@	c #B3D1FF",
"I@	c #C1D6F8",
"J@	c #B9B8B6",
"K@	c #282828",
"L@	c #AEAEAE",
"M@	c #F6F6F6",
"N@	c #FCFCFC",
"O@	c #F5FBFC",
"P@	c #E5ADAF",
"Q@	c #F44F4F",
"R@	c #FF2927",
"S@	c #FA2321",
"T@	c #DC464A",
"U@	c #AB94A3",
"V@	c #A8C2DC",
"W@	c #B5CCEC",
"X@	c #BFD7FF",
"Y@	c #ADCDFF",
"Z@	c #A7C7FA",
"`@	c #A4A6A7",
" #	c #2B2B2A",
".#	c #818181",
"+#	c #EFEFEF",
"@#	c #FFFDFD",
"##	c #F9C7C7",
"$#	c #F05F60",
"%#	c #EB2324",
"&#	c #E03A3E",
"*#	c #C9535B",
"=#	c #AB6F7C",
"-#	c #9DA8C0",
";#	c #A6C0E0",
">#	c #BED8FF",
",#	c #B6D3FF",
"'#	c #ACCDFF",
")#	c #9FC4FF",
"!#	c #9DAECD",
"~#	c #ADABAA",
"{#	c #2F2F2F",
"]#	c #787878",
"^#	c #9C9C9C",
"/#	c #E1E2E2",
"(#	c #FBF1F1",
"_#	c #E8A4A7",
":#	c #E7B7BF",
"<#	c #DDD8E7",
"[#	c #D8E5F8",
"}#	c #C1DDF6",
"|#	c #9FB9D5",
"1#	c #C3DDFF",
"2#	c #B7D1FA",
"3#	c #A9C5F6",
"4#	c #A1C2F9",
"5#	c #A1C1F6",
"6#	c #A2B2CC",
"7#	c #B6B5B4",
"8#	c #C3C3C2",
"9#	c #333333",
"0#	c #6D6D6D",
"a#	c #909090",
"b#	c #898989",
"c#	c #B0B1B1",
"d#	c #DCE6E7",
"e#	c #EBF6FE",
"f#	c #E7F4FF",
"g#	c #DDEDFF",
"h#	c #D0E2FF",
"i#	c #BFD4F5",
"j#	c #C0DAFF",
"k#	c #ADC4E9",
"l#	c #A8B5CE",
"m#	c #B6B9C0",
"n#	c #BBB9B6",
"o#	c #BDBDBC",
"p#	c #E2E2E2",
"q#	c #2D2D2D",
"r#	c #404040",
"s#	c #8E8E8E",
"t#	c #868686",
"u#	c #80807F",
"v#	c #949393",
"w#	c #AAAAAA",
"x#	c #B6B8BA",
"y#	c #BCC0C5",
"z#	c #BEC2CA",
"A#	c #BABEC5",
"B#	c #B9BBBE",
"C#	c #B7B7B7",
"D#	c #B4B2AF",
"E#	c #BABABA",
"F#	c #BDBDBD",
"G#	c #747474",
"H#	c #828282",
"I#	c #7E7E7E",
"J#	c #737373",
"K#	c #7A7A79",
"L#	c #878786",
"M#	c #91908F",
"N#	c #9A9998",
"O#	c #9C9B9B",
"P#	c #9D9C9C",
"Q#	c #A8A7A7",
"R#	c #ECECEC",
"S#	c #F4F4F4",
"T#	c #8A8A8A",
"U#	c #8D8D8D",
"V#	c #A4A4A4",
"W#	c #B0B0B0",
"X#	c #BFBFBF",
"Y#	c #E8E8E8",
"Z#	c #DDDDDD",
"`#	c #656565",
" $	c #777777",
".$	c #959595",
"+$	c #A3A3A3",
"@$	c #B1B1B1",
"#$	c #CACACA",
"$$	c #949494",
"%$	c #343434",
"&$	c #363636",
"*$	c #515151",
"=$	c #7B7B7B",
"-$	c #727272",
";$	c #545454",
">$	c #262626",
"                                                                ",
"                                                                ",
"                                    . + @                       ",
"                                  # $ % & *                     ",
"                                = - ; > , & '                   ",
"                  ) ! ~ { ] ^ / ( _ : < [ } | 1                 ",
"                2 3 4 5 6 7 8 9 0 a b c d e f g h               ",
"                i j k l m n o p q r s t u v w x y               ",
"                z A B C D E F G H I J K L M N O P y             ",
"            Q R S T U V W X Y Z `  ...+.@.#.$.%.&.*.=.          ",
"  -.;.>.,.'.).!.~.{.].^./.(._.:.<.[.}.|.1.2.3.4.5.6.7.8.        ",
"  9.0.a.b.c.d.e.f.g.h.i.j.k.l.m.n.o.p.q.r.s.t.u.v.w.x.y.z.      ",
"    A.B.C.D.E.F.G.H.I.J.K.L.M.N.O.P.Q.R.S.T.U.V.W.X.Y.Z.`. +    ",
"      .+++@+#+$+%+&+*+=+-+;+>+,+'+)+!+~+{+]+^+/+(+_+:+<+[+}+|+  ",
"        1+2+3+4+5+6+7+8+9+0+a+b+c+d+e+f+g+h+i+j+k+l+m+n+o+p+q+  ",
"          r+s+t+u+v+w+x+y+z+A+B+C+D+E+F+G+H+I+J+K+L+M+N+O+P+    ",
"            Q+R+S+T+U+V+W+X+Y+Z+`+ @.@+@@@#@$@%@&@*@=@g -@      ",
"            ;@>@,@'@)@Z+!@~@{@]@^@/@(@_@:@<@[@}@|@1@2@3@4@      ",
"            5@)@6@-.7@}+}+}+8@y.9@0@a@b@c@d@e@                  ",
"          f@g@h@i@}+}+j@k@l@m@n@o@p@q@r@s@t@u@                  ",
"          v@!@w@}+}+x@y@z@A@B@C@D@E@F@G@H@I@J@K@                ",
"          L@M@N@}+}+O@P@Q@R@S@T@U@V@W@X@Y@Z@`@ #                ",
"          .#+#}+@###$#%#&#*#=#-#;#>#,#'#)#!#~#{#                ",
"          ]#^#/#(#_#:#<#[#}#|#1#2#3#4#5#6#7#8#9#                ",
"          0#a#b#c#d#e#f#g#h#i#j#V k#l#m#n#o#p#q#                ",
"          r#b#s#t#u#v#w#x#y#z#A#B#C#D#i E#7@F#                  ",
"            G#H#s#f@I#J#K#L#M#N#O#P#Q#g@R#S#9.                  ",
"              J#H#.#t#T#U#W+6@V#W#X#~@Y#Z#`#                    ",
"                9. $.#.#'@.$+$@$X##$g@$$%$                      ",
"                    &$*$`#J#=$I#-$;$>$                          ",
"                                                                ",
"                                                                "};
