/* XPM */
static char * blogbridge16_xpm[] = {
"16 16 137 2",
"  	c None",
". 	c #7C7979",
"+ 	c #E7F1FC",
"@ 	c #C0C0C3",
"# 	c #9BA6B3",
"$ 	c #8F9EB0",
"% 	c #899BB4",
"& 	c #9BB5D6",
"* 	c #A4DCFC",
"= 	c #D5F2FF",
"- 	c #ABA9A9",
"; 	c #AAB5C3",
"> 	c #8CB8FC",
", 	c #5E93E9",
"' 	c #4479D2",
") 	c #2765BD",
"! 	c #72B3E4",
"~ 	c #B1E5FF",
"{ 	c #DFF3FF",
"] 	c #908E8C",
"^ 	c #9B9B9B",
"/ 	c #C1D1E6",
"( 	c #B4D0FF",
"_ 	c #6898E5",
": 	c #3482D4",
"< 	c #1E5CB5",
"[ 	c #0B48A4",
"} 	c #70A1D7",
"| 	c #C2EBFF",
"1 	c #E3F2FF",
"2 	c #7F7D7C",
"3 	c #C2CFDD",
"4 	c #83ADEC",
"5 	c #85B0F3",
"6 	c #91B8F8",
"7 	c #B8CEF9",
"8 	c #9DBEEF",
"9 	c #4DB4EC",
"0 	c #1661B6",
"a 	c #2D78BF",
"b 	c #569DD2",
"c 	c #B0DCF6",
"d 	c #CDEAFF",
"e 	c #E2EDF9",
"f 	c #636161",
"g 	c #545452",
"h 	c #9AB9E7",
"i 	c #72A7FF",
"j 	c #68A4FF",
"k 	c #6CBCFA",
"l 	c #A2C2EE",
"m 	c #91CDF2",
"n 	c #2C79C3",
"o 	c #4799D6",
"p 	c #72BAE4",
"q 	c #81B7DE",
"r 	c #C5E2F9",
"s 	c #D2EBFF",
"t 	c #E1E9F3",
"u 	c #61615F",
"v 	c #8BACDD",
"w 	c #75A1E4",
"x 	c #73AECB",
"y 	c #9CB0BB",
"z 	c #AEBBC0",
"A 	c #9EB8C7",
"B 	c #77AAC7",
"C 	c #6EACD6",
"D 	c #7AAED9",
"E 	c #8CB3DA",
"F 	c #D1E8FF",
"G 	c #C1C5CA",
"H 	c #8E908E",
"I 	c #A7A7A8",
"J 	c #A9A29E",
"K 	c #BEBBB9",
"L 	c #CACAC9",
"M 	c #D0D1D2",
"N 	c #D4D3D1",
"O 	c #98A5B0",
"P 	c #778798",
"Q 	c #7A8189",
"R 	c #838485",
"S 	c #ACACAB",
"T 	c #CDCCCB",
"U 	c #F8FBFB",
"V 	c #F8FFFF",
"W 	c #F0F4FA",
"X 	c #F1DEE6",
"Y 	c #DDD3E1",
"Z 	c #E5E8ED",
"` 	c #504D48",
" .	c #EAEAEA",
"..	c #FFFFFF",
"+.	c #FAF0F0",
"@.	c #F19B9D",
"#.	c #EE6C6D",
"$.	c #DB8E97",
"%.	c #CDD4EF",
"&.	c #C5DFFF",
"*.	c #666869",
"=.	c #F2F5F5",
"-.	c #FFE6E6",
";.	c #EE8084",
">.	c #DD5E66",
",.	c #B48597",
"'.	c #B1CDF4",
").	c #ADD1FF",
"!.	c #ACC2EA",
"~.	c #696969",
"{.	c #9E9E9E",
"].	c #C3BBBC",
"^.	c #DCD7E0",
"/.	c #CEE5FD",
"(.	c #BAD7F7",
"_.	c #B2C7EA",
":.	c #A9B5CB",
"<.	c #CCCECF",
"[.	c #7D7D7C",
"}.	c #757575",
"|.	c #898A8A",
"1.	c #8E9191",
"2.	c #98999B",
"3.	c #A2A4A5",
"4.	c #ACACAC",
"5.	c #C9C7C3",
"6.	c #DDDDDC",
"7.	c #3A3A3A",
"8.	c #818181",
"9.	c #908F8F",
"0.	c #A8A8A7",
"a.	c #BDBDBD",
"b.	c #B7B7B7",
"c.	c #484848",
"d.	c #383838",
"e.	c #434343",
"f.	c #363636",
"                  .             ",
"                  + @           ",
"          # $ % & * = -         ",
"        ; > , ' ) ! ~ { ]       ",
"      ^ / ( _ : < [ } | 1 2     ",
"  3 4 5 6 7 8 9 0 a b c d e f   ",
"  g h i j k l m n o p q r s t   ",
"    u v w x y z A B C D E F G   ",
"      H I J K L M N O P Q R     ",
"      S T U V W X Y Z `         ",
"       ...+.@.#.$.%.&.*.        ",
"      =.-.;.>.,.'.).!.~.        ",
"      {.].^./.(._.:.<.[.        ",
"      }.|.1.2.3.4.5.6.7.        ",
"        ~.8.9.0.a.b.c.          ",
"            d.e.f.              "};
